<svg xmlns="http://www.w3.org/2000/svg" viewBox="0 0 1200 200">
  <style>
    .skyline { fill: #1a4c7c; }
  </style>
  <!-- Jaipur landmarks silhouette -->
  <path class="skyline" d="
    M0,200 
    L50,200 L50,150 L70,150 L70,140 L90,140 L90,150 L110,150 L110,200
    L150,200 L150,120 L170,100 L190,120 L190,200
    L230,200 L230,130 L250,110 L270,130 L270,200
    L310,200 L310,140 L330,140 L330,130 L350,130 L350,140 L370,140 L370,200
    L410,200 L410,100 L430,80 L450,100 L450,200
    L490,200 L490,160 L510,140 L530,160 L530,200
    L570,200 L570,110 L590,90 L610,110 L610,200
    L650,200 L650,150 L670,130 L690,150 L690,200
    L730,200 L730,120 L750,100 L770,120 L770,200
    L810,200 L810,140 L830,140 L830,130 L850,130 L850,140 L870,140 L870,200
    L910,200 L910,130 L930,110 L950,130 L950,200
    L990,200 L990,150 L1010,150 L1010,140 L1030,140 L1030,150 L1050,150 L1050,200
    L1090,200 L1090,120 L1110,100 L1130,120 L1130,200
    L1170,200 L1170,140 L1190,140 L1190,200
    L1200,200 L1200,200 Z"
  />
</svg> 